<?xml version="1.0" encoding="utf-8"?>
<!DOCTYPE svg PUBLIC "-//W3C//DTD SVG 20010904//EN" "http://www.w3.org/TR/2001/REC-SVG-20010904/DTD/svg10.dtd">
<svg version="1.0" xmlns="http://www.w3.org/2000/svg" width="564px" height="564px" viewBox="0 0 564 564" preserveAspectRatio="xMidYMid meet">
 <g fill="#000000">
  <path d="M287 381.9 l0 -19.5 3 -2.2 c4.7 -3.5 3.9 -11 -0.9 -8.1 -1.5 1 -2.4 0.9 -4.6 -0.5 -2.3 -1.5 -2.9 -1.6 -3.6 -0.5 -1.7 2.7 -1 6.7 1.6 8.7 l2.5 2 -0.1 19.3 c-0.1 10.7 -0.3 18.5 -0.6 17.4 -2.6 -11.2 -11.3 -30.5 -17.3 -38.3 l-4 -5.3 3.4 -5.8 c1.8 -3.2 4 -7.4 4.7 -9.5 l1.3 -3.6 13.7 0 13.7 0 3.1 6.6 c1.7 3.6 3.9 7.8 5 9.3 l2 2.8 -4.4 5.8 c-5.6 7.5 -10.9 18.3 -15.1 31 l-3.3 10 -0.1 -19.6z"/>
  <path d="M274.4 328.8 c0.3 -1.3 0.6 -4.7 0.6 -7.5 l0 -5.3 10.9 0 10.8 0 0.6 6.6 c0.4 3.7 0.4 7.1 0.1 7.5 -0.3 0.5 -5.7 0.9 -12.1 0.9 -11.5 0 -11.5 0 -10.9 -2.2z"/>
  <path d="M254.2 323.6 c-3.4 -3.5 -6.2 -6.6 -6.2 -6.8 0 -0.1 5.2 -0.2 11.5 0 l11.5 0.3 0 2.7 c0 1.5 -0.3 4.4 -0.6 6.5 -0.7 3.7 -0.7 3.7 -5.4 3.7 -4.5 0 -5 -0.3 -10.8 -6.4z"/>
  <path d="M302 323.6 l0 -6.5 12.3 -0.3 12.4 -0.3 -6.1 6.7 -6.1 6.8 -6.2 0 -6.3 0 0 -6.4z"/>
  <path d="M239.5 306.5 c-3.5 -4.2 -3.9 -4.4 -9.8 -4.8 -3.4 -0.2 3.6 -0.4 15.6 -0.5 l21.7 -0.2 0 5 0 5 -11.9 0 -12 0 -3.6 -4.5z"/>
  <path d="M271.7 310.3 c-0.4 -0.3 -0.7 -2.6 -0.7 -5 l0 -4.3 15.5 0 15.5 0 0 3.4 c0 6.7 0.2 6.6 -15.4 6.6 -7.9 0 -14.6 -0.3 -14.9 -0.7z"/>
  <path d="M306 306 l0 -5 20.3 0.2 c11.1 0.1 18.4 0.3 16.1 0.5 -3.5 0.3 -4.6 1.1 -7.4 4.9 l-3.4 4.4 -12.8 0 -12.8 0 0 -5z"/>
  <path d="M216 296 c0 -0.5 0.6 -0.7 1.4 -0.4 1.1 0.4 1.6 -0.4 1.9 -3.3 l0.4 -3.8 0.1 4.3 c0.2 3.6 -0.1 4.2 -1.8 4.2 -1.1 0 -2 -0.4 -2 -1z"/>
  <path d="M223.1 295.1 c-1.9 -3.5 0.9 -6.8 4.5 -5.4 1 0.4 1.4 1.6 1.2 3.7 -0.4 3.8 -4 4.9 -5.7 1.7z m4.9 -1.5 c0 -3.2 -2 -4.4 -3.6 -2.2 -1.6 2.3 -0.7 4.6 1.7 4.6 1.3 0 1.9 -0.7 1.9 -2.4z"/>
  <path d="M232.3 293 c-0.1 -2.5 0.1 -3.7 0.4 -2.7 0.2 0.9 1.3 1.7 2.3 1.7 1 0 2.1 -0.8 2.3 -1.7 0.3 -1 0.5 0.2 0.4 2.7 0 2.5 -0.2 3.5 -0.4 2.3 -0.3 -1.4 -1.2 -2.3 -2.3 -2.3 -1.1 0 -2 0.9 -2.3 2.3 -0.2 1.2 -0.4 0.2 -0.4 -2.3z"/>
  <path d="M240 293 c0 -2.2 0.4 -4 0.9 -4 1.3 0 1.8 1.9 1.3 5.2 -0.6 4.2 -2.2 3.4 -2.2 -1.2z"/>
  <path d="M243.9 294.9 c-0.7 -1.3 -0.7 -1.9 -0.1 -1.5 0.6 0.4 1.2 -0.6 1.5 -2.1 0.3 -2 0.4 -1.6 0.6 1.5 0.1 4.7 -0.3 5.2 -2 2.1z"/>
  <path d="M252 293.1 c0 -3.2 0.4 -4.1 1.8 -4.1 3 0 4.4 1.6 4 4.6 -0.2 2.3 -0.9 3 -3 3.2 -2.7 0.3 -2.8 0.1 -2.8 -3.7z m4.8 0.2 c-0.2 -1.7 -1 -2.9 -2 -3.1 -1.4 -0.3 -1.8 0.3 -1.8 2.7 0 2.5 0.4 3.1 2.1 3.1 1.6 0 2 -0.5 1.7 -2.7z"/>
  <path d="M268 293.4 c-0.7 -1.9 -1 -3.8 -0.6 -4.1 0.3 -0.3 0.8 0.6 1.2 2.1 0.8 3.3 2.2 3.3 3 0.1 0.4 -1.4 0.9 -2.4 1.1 -2.1 0.7 0.7 -1.7 7.6 -2.7 7.6 -0.5 0 -1.4 -1.6 -2 -3.6z"/>
  <path d="M274 296.5 c0 -1.3 3.1 -7.8 3.5 -7.4 0.2 0.3 1.2 2.3 2.1 4.4 1.5 3.7 1.5 3.8 -0.1 2.5 -1.3 -1.1 -2.1 -1.1 -3.6 -0.2 -1 0.7 -1.9 1 -1.9 0.7z"/>
  <path d="M283.1 293.3 c-0.1 -4.8 0.3 -5.3 2 -2.2 0.7 1.3 0.7 1.9 0.1 1.5 -0.6 -0.4 -1.2 0.6 -1.5 2.1 -0.3 2 -0.4 1.6 -0.6 -1.4z"/>
  <path d="M286.6 295.5 c-0.3 -0.8 -0.1 -1.5 0.4 -1.5 0.5 0 1.1 -1.2 1.3 -2.7 0.3 -2 0.4 -1.5 0.6 1.5 0.1 4.1 -1.1 5.7 -2.3 2.7z"/>
  <path d="M291 293 c0 -3.6 0.3 -4 2.5 -4 3.1 0 5 3.2 3.5 6 -0.6 1.2 -2.1 2 -3.5 2 -2.2 0 -2.5 -0.4 -2.5 -4z m5 0 c0 -2 -0.5 -3 -1.5 -3 -1 0 -1.5 1 -1.5 3 0 2 0.5 3 1.5 3 1 0 1.5 -1 1.5 -3z"/>
  <path d="M300 293 c0 -3.7 0.2 -4 2.8 -3.9 2.3 0.2 2.4 0.2 0.5 0.6 -1.3 0.2 -2.3 0.8 -2.3 1.3 0 0.5 1 1.1 2.3 1.3 l2.2 0.4 -2.2 0.2 c-3.3 0.2 -2.9 2.9 0.5 3.4 2.5 0.4 2.5 0.4 -0.5 0.6 -3.2 0.1 -3.3 0 -3.3 -3.9z"/>
  <path d="M308.1 293.3 c-0.1 -3.6 0.2 -4.3 1.8 -4.3 2.7 0 4.7 2.6 3.2 4.3 -0.8 1 -0.7 1.7 0.1 2.5 0.8 0.8 0.9 1.2 0.1 1.2 -0.6 0 -1.3 -0.7 -1.7 -1.5 -0.7 -2 -2.4 -1.9 -2.9 0.3 -0.3 0.9 -0.5 -0.2 -0.6 -2.5z m4.2 -1.8 c0.1 -0.5 -0.6 -1.1 -1.5 -1.3 -1.1 -0.2 -1.8 0.3 -1.8 1.3 0 1.7 3 1.8 3.3 0z"/>
  <path d="M316.1 293 c0.1 -2.5 0.3 -3.7 0.6 -2.7 0.6 2.1 1.7 2.2 3.3 0.2 0.7 -0.8 1.7 -1.5 2.3 -1.5 0.5 0 0.2 0.9 -0.8 2 -1.4 1.6 -1.6 2.3 -0.7 3.2 2 2 1.3 3.2 -0.7 1.4 -1.8 -1.7 -2 -1.7 -3 0.1 -0.8 1.4 -1 0.9 -1 -2.7z"/>
  <path d="M325.5 293.3 c2.1 -5 2.2 -5 3.9 -0.8 2 4.7 2 5.1 0 3.4 -1.2 -1 -2 -1 -3.5 -0.1 -1.9 1.2 -1.9 1.1 -0.4 -2.5z"/>
  <path d="M333.1 296.6 c-0.1 -1.5 2.2 -7.6 2.9 -7.6 0.4 0 1.4 1.8 2.3 4 0.8 2.2 1.1 4 0.6 4 -0.5 0 -0.9 -0.4 -0.9 -1 0 -1.4 -3.7 -1.2 -4.3 0.3 -0.3 0.6 -0.6 0.8 -0.6 0.3z"/>
  <path d="M342.1 293.9 c-2.3 -5.4 -2.3 -5.5 -0.7 -3.5 1.6 2 1.6 2 3.1 0 0.8 -1 1.5 -1.4 1.5 -0.8 0 0.5 -0.4 1.4 -0.9 2 -0.5 0.5 -1.1 2 -1.3 3.3 -0.3 2.2 -0.4 2.1 -1.7 -1z"/>
  <path d="M192.4 284.7 c1.6 -2 3 -3.7 3.3 -3.7 0.7 0 -3.6 5.8 -4.9 6.6 -0.7 0.4 0.1 -0.9 1.6 -2.9z"/>
  <path d="M371.3 285.8 c-1.1 -1.3 -2.4 -3 -2.8 -3.8 -0.8 -1.6 -0.6 -1.4 3.4 3.3 1.4 1.5 2.2 2.7 1.9 2.7 -0.2 0 -1.4 -1 -2.5 -2.2z"/>
  <path d="M353.4 285.5 c0.2 -1.1 1.4 -5.8 2.7 -10.4 2.4 -8.8 3.8 -9.7 2 -1.3 -0.9 4.5 -5.5 15.8 -4.7 11.7z"/>
  <path d="M207.7 282 c-1.4 -3.6 -4.8 -20.4 -4.7 -22.9 0 -0.3 0.9 1.2 1.9 3.4 1 2.2 1.5 4.4 1.1 4.8 -0.4 0.5 0.3 4.5 1.6 9 2.7 9 2.7 12.7 0.1 5.7z"/>
  <path d="M219.2 260.3 c0.3 -29.8 0.8 -31.7 8.2 -35.3 3.9 -1.8 6.1 -2 27.9 -2 15.1 0 23.7 0.4 23.7 1 0 0.6 -8.5 1 -23.5 1 -26.3 0 -29 0.5 -32.5 6.2 -1.9 3.1 -2 5 -2 28.1 l0 24.7 29 0 c18.7 0 29 0.4 29 1 0 0.6 -10.7 1 -30 1 l-30.1 0 0.3 -25.7z"/>
  <path d="M280 254.5 l0 -31.5 32.5 0 32.5 0 0 25.8 c0 29.6 -0.3 31 -8 35 -4.3 2.1 -5.4 2.2 -30.7 2.2 l-26.3 0 0 -31.5z m36 11.3 c0 -0.5 -1.4 -0.8 -3.1 -0.8 -1.8 0 -3.8 -0.8 -4.6 -1.7 -1.3 -1.6 -1.3 -1.5 -0.1 0.7 0.8 1.4 2.1 3.6 2.8 4.9 l1.2 2.4 1.9 -2.4 c1 -1.3 1.9 -2.7 1.9 -3.1z m-9.3 -5.5 c-2.5 -4.8 -11 -18.3 -11.4 -18.3 -0.3 0 0.1 1 0.9 2.3 0.8 1.2 3.4 5.5 5.7 9.5 2.4 3.9 4.5 7.2 4.8 7.2 0.2 0 0.2 -0.3 0 -0.7z"/>
  <path d="M179.1 283.6 c0.3 -0.3 2.2 -1.7 4.4 -3.1 l4 -2.6 -3.3 3.1 c-1.8 1.6 -3.7 3 -4.4 3 -0.6 0 -0.9 -0.2 -0.7 -0.4z"/>
  <path d="M380.3 281.5 c-3.6 -3.2 -2.6 -3.2 1.7 0 1.9 1.4 2.9 2.5 2.3 2.5 -0.7 0 -2.5 -1.1 -4 -2.5z"/>
  <path d="M165.9 276.4 c1.9 -0.8 5 -2.4 7 -3.6 2.6 -1.6 3.2 -1.8 2.3 -0.6 -1.6 2 -9.2 5.8 -11.3 5.8 -0.8 -0.1 0.1 -0.7 2 -1.6z"/>
  <path d="M394.3 275.9 c-2.3 -1.1 -4.8 -2.8 -5.5 -3.7 -1.1 -1.5 -1.1 -1.5 0.2 -0.5 0.9 0.7 4 2.3 7 3.7 3 1.4 4.8 2.6 4 2.6 -0.8 0 -3.4 -0.9 -5.7 -2.1z"/>
  <path d="M370 273.5 c0.7 -0.8 1.7 -1.5 2.2 -1.5 0.6 0 0.5 0.7 -0.2 1.5 -0.7 0.8 -1.7 1.5 -2.2 1.5 -0.6 0 -0.5 -0.7 0.2 -1.5z"/>
  <path d="M233.3 271.8 c-3.9 -4.2 -3.1 -4.8 6.2 -4.8 9.3 0 14.7 -1.6 16.4 -4.8 0.6 -1.2 1.1 -5.9 1.1 -10.6 0 -4.6 0.4 -9.6 0.9 -10.9 1.2 -3.1 3.8 -5.7 5.8 -5.7 1.3 0 1.4 2 1.1 14.4 -0.3 12.7 -0.5 14.8 -2.4 17.2 -4.3 5.8 -6.7 6.8 -17.2 7.2 -9.2 0.4 -9.8 0.3 -11.9 -2z"/>
  <path d="M144 268.6 c3.6 -0.8 9.4 -2.4 13 -3.5 3.5 -1.1 6.6 -1.9 6.7 -1.7 0.2 0.2 -2.5 1.6 -5.9 3.1 -4.4 2 -8.2 2.9 -13.3 3.1 l-7 0.4 6.5 -1.4z"/>
  <path d="M411.5 268.6 c-2.2 -0.7 -5.8 -2.3 -8 -3.5 -2.2 -1.2 -3.1 -1.9 -2 -1.5 2.8 0.9 19.5 5.2 22.5 5.7 1.4 0.2 0 0.5 -3 0.5 -3 0 -7.3 -0.5 -9.5 -1.2z"/>
  <path d="M378.4 266.5 c1.1 -0.8 2.2 -1.2 2.5 -0.9 0.6 0.6 -1.9 2.4 -3.4 2.4 -0.5 -0.1 -0.1 -0.7 0.9 -1.5z"/>
  <path d="M357.7 265.2 c-0.3 -0.4 0.4 -2.3 1.5 -4.2 1 -1.9 1.7 -2.7 1.4 -1.7 -0.3 1 -0.6 3 -0.6 4.3 0 2.3 -1.4 3.2 -2.3 1.6z"/>
  <path d="M130 258.5 c5.8 -1.3 11.8 -2.8 13.4 -3.4 1.6 -0.6 3.1 -1 3.3 -0.8 0.5 0.5 -8.9 4.3 -14.2 5.6 -2.2 0.6 -6 1.1 -8.5 1 -3.8 -0.1 -2.8 -0.5 6 -2.4z"/>
  <path d="M431.3 260 c-4.2 -1 -14.5 -5.2 -14 -5.7 0.2 -0.2 1.7 0.2 3.3 0.8 1.6 0.6 7.6 2.1 13.4 3.4 9.2 2 9.9 2.3 5.5 2.3 -2.7 0 -6.4 -0.3 -8.2 -0.8z"/>
  <path d="M174.9 257 c-3.1 -2.5 -1.2 -2.6 2.1 0 1.4 1.1 2 2 1.4 2 -0.7 0 -2.2 -0.9 -3.5 -2z"/>
  <path d="M387.1 257.1 c1.3 -1.1 2.6 -1.7 2.9 -1.4 0.6 0.6 -3 3.3 -4.3 3.3 -0.5 0 0.1 -0.9 1.4 -1.9z"/>
  <path d="M198 247.3 c-9.3 -23.4 -12.3 -27.1 -23.3 -29.3 -3.6 -0.7 -3.8 -0.8 -1.2 -0.9 7.8 -0.3 15 4.1 18.6 11 2.4 4.8 11.1 29.1 10.5 29.6 -0.2 0.2 -2.3 -4.5 -4.6 -10.4z"/>
  <path d="M361.5 255.5 c4.9 -14.3 9.9 -27.5 11.6 -30.1 3.1 -5.1 8 -7.6 15.7 -8 l6.7 -0.3 -5.7 0.8 c-6.7 1 -12 4 -14.7 8.4 -1 1.8 -4.3 8.8 -7.1 15.7 -4.8 11.5 -8.2 18.7 -6.5 13.5z"/>
  <path d="M107 249.1 c-3.8 -0.5 -2.6 -0.8 7.5 -1.8 6.7 -0.7 14.3 -1.9 17 -2.7 2.7 -0.9 5.1 -1.4 5.3 -1.1 0.7 0.7 -15.3 5.2 -20.3 5.7 -2.7 0.3 -7 0.2 -9.5 -0.1z"/>
  <path d="M444.5 248.9 c-2.7 -0.5 -7.5 -1.8 -10.5 -2.9 -3 -1.1 -4.4 -1.8 -3 -1.5 4.7 1 23.5 3.5 26.9 3.5 1.9 0 3.2 0.2 3 0.4 -1.1 0.9 -11.9 1.3 -16.4 0.5z"/>
  <path d="M163 247.5 c-1.1 -1.3 -0.8 -1.3 1.9 -0.4 3.5 1.2 4 1.9 1.2 1.9 -1 0 -2.4 -0.7 -3.1 -1.5z"/>
  <path d="M396 248.6 c0 -0.2 1.4 -0.9 3.1 -1.5 2.7 -0.9 3 -0.9 1.9 0.4 -1.1 1.3 -5 2.2 -5 1.1z"/>
  <path d="M153.6 239.4 c-0.9 -0.8 -1.6 -1.7 -1.6 -2 0 -0.4 3.8 1.8 5.9 3.3 0.2 0.2 -0.3 0.3 -1.2 0.3 -0.8 0 -2.3 -0.7 -3.1 -1.6z"/>
  <path d="M407 240 c2.8 -1.9 5 -3.1 5 -2.6 0 1.1 -3.3 3.6 -4.8 3.6 -1.5 0 -1.5 -0.2 -0.2 -1z"/>
  <path d="M91.1 237.9 c-3 -0.5 -5.7 -1.2 -6 -1.4 -0.2 -0.3 6.6 -0.5 15.1 -0.5 8.6 0 17.1 -0.2 18.9 -0.5 1.9 -0.2 0.9 0.2 -2.1 1 -7.4 1.9 -19.3 2.6 -25.9 1.4z"/>
  <path d="M450.6 237.4 c-4.4 -0.8 -8.2 -1.7 -8.5 -2.1 -0.3 -0.3 0.9 -0.3 2.8 0.1 1.8 0.3 10.4 0.7 19 0.7 l15.6 0.1 -6.5 1.4 c-8.1 1.6 -12.4 1.6 -22.4 -0.2z"/>
  <path d="M141.4 228.9 c-1.9 -2.2 -1.9 -2.2 0.3 -1 2.4 1.2 3.9 3.1 2.5 3.1 -0.5 0 -1.7 -1 -2.8 -2.1z"/>
  <path d="M419 230 c0.8 -0.6 2.4 -1.6 3.5 -2.2 2 -1.1 2 -1.1 0.1 1.1 -1.1 1.1 -2.6 2.1 -3.5 2.1 -1.4 0 -1.4 -0.2 -0.1 -1z"/>
  <path d="M77.2 226.9 c-3.9 -0.5 -10 -1.6 -13.5 -2.5 -6.8 -1.7 -21 -8.1 -24.2 -10.9 -1.9 -1.6 -1.9 -1.6 0.8 0 8.9 5.2 30.3 10.8 48.7 12.5 6.3 0.6 11.6 1.3 11.9 1.5 0.7 0.8 -15.7 0.3 -23.7 -0.6z"/>
  <path d="M467.5 227 c2.8 -0.5 9.5 -1.4 15 -2 11.4 -1.4 25.7 -4.9 34.5 -8.4 3.3 -1.4 6 -2.3 6 -2 0 0.9 -12.1 6.4 -19.6 8.7 -8.8 2.8 -23.5 4.8 -34.1 4.6 l-6.8 -0.1 5 -0.8z"/>
  <path d="M227 220 c-12.4 -0.3 -21.9 -0.7 -21.2 -0.8 0.7 -0.1 1.2 -1.9 1.2 -4.6 0 -4.2 0.1 -4.4 4.4 -6 9.8 -3.8 13.9 -9.9 14 -21.1 0.1 -3.8 -0.2 -8.2 -0.7 -9.8 -0.7 -2.6 -0.4 -2.9 4 -4.8 12.6 -5.4 30.7 -8.8 50.8 -9.6 20.3 -0.8 38.5 1.6 56.5 7.3 10.8 3.4 11.1 3.7 10.1 10.7 -1.8 13.2 2.1 21.8 11.8 26.4 5.9 2.8 5.9 2.8 6.3 7.4 l0.3 4.6 -36.5 0.6 c-38.1 0.7 -63.1 0.6 -101 -0.3z m24 -19.4 c0 -1.4 -0.7 -2.5 -1.7 -2.8 -2.9 -0.8 -4.3 0.2 -4.3 2.8 0 2 0.5 2.4 3 2.4 2.5 0 3 -0.4 3 -2.4z m75.2 -0.1 c0.4 -1.7 0.1 -2.5 -0.8 -2.5 -0.8 0 -1.4 -0.6 -1.5 -1.2 0 -1 -0.2 -1 -0.6 0 -0.2 0.6 -1.1 1.2 -1.9 1.2 -0.8 0 -1.4 1 -1.4 2.5 0 2.1 0.5 2.5 2.9 2.5 2.3 0 3 -0.5 3.3 -2.5z m-35 -2.8 c-0.3 -3.8 -0.1 -4.4 2.4 -5.7 l2.7 -1.5 -4.3 -0.5 c-4 -0.5 -4.5 -0.8 -5.4 -3.9 l-1 -3.4 -1.1 3.4 c-1 2.9 -1.7 3.5 -5.1 3.9 -3.8 0.5 -3.9 0.6 -1.6 2 1.6 1.1 2.2 2.4 2.2 5.1 l0 3.7 3.9 -0.5 c2.1 -0.3 4.7 0 5.7 0.6 1.1 0.6 1.9 1.1 1.9 1.1 0 0 -0.1 -1.9 -0.3 -4.3z"/>
  <path d="M103 214.3 c-13.4 -1.1 -45.8 -6.9 -44.7 -8 0.2 -0.2 2.6 0.1 5.3 0.7 18 4 58.5 6.6 87.9 5.6 10.5 -0.4 20.8 -0.9 23 -1.1 l4 -0.4 -4.2 0.9 c-11.2 2.4 -53.4 3.7 -71.3 2.3z"/>
  <path d="M405.2 213.9 c-5.7 -0.5 -12.4 -1.3 -15 -1.8 -3.7 -0.7 -3 -0.8 3.3 -0.3 12.5 1.1 63.6 0.6 78 -0.7 11.6 -1.1 25.6 -3.1 32.5 -4.8 1.4 -0.3 2.2 -0.3 1.9 0.1 -0.8 0.8 -17.7 4.3 -30.3 6.2 -12.1 1.9 -55.3 2.7 -70.4 1.3z"/>
 </g>
 <g fill="#ffffff">
  <path d="M309.3 273.8 c-3.1 -4 -23.4 -39 -22.9 -39.5 0.9 -0.9 8 1.5 10.7 3.6 1.3 1 5.3 6.9 8.9 13 3.6 6.1 6.7 11.1 7 11.1 0.3 0 2.7 -4 5.4 -8.8 2.7 -4.8 6 -10.2 7.3 -12 2.6 -3.4 8.9 -7.2 12.2 -7.2 1.7 0 0 3.3 -10.2 20.3 -10.4 17.1 -12.6 20.2 -14.8 20.5 -1.4 0.2 -3 -0.3 -3.6 -1z"/>
  <path d="M239 211.2 c0 -0.5 0.7 -2.9 1.5 -5.3 1.2 -3.4 1.3 -4.4 0.3 -5 -0.7 -0.4 -2.8 -1.9 -4.7 -3.3 l-3.3 -2.5 5.7 -0.3 5.8 -0.3 1.8 -5 1.7 -5 1.1 2.8 c0.6 1.5 1.4 3.9 1.7 5.2 0.6 2.3 1.1 2.5 6.3 2.5 6.1 0.1 6.2 -0.2 -0.8 4.9 -2.3 1.7 -2.3 1.8 -0.8 6.9 0.8 2.9 1.3 5.2 1.1 5.2 -0.2 0 -2.3 -1.4 -4.6 -3 l-4.1 -3 -3.1 2.3 c-4.4 3.3 -5.6 3.9 -5.6 2.9z"/>
  <path d="M274.7 204.4 c1.4 -4.1 2.4 -7.6 2.2 -7.8 -0.2 -0.2 -3.3 -2.4 -6.8 -4.9 l-6.4 -4.6 8.3 -0.3 8.3 -0.3 2.5 -7.3 c1.3 -4 2.7 -7.1 3 -6.7 0.3 0.3 1.5 3.6 2.7 7.3 l2.1 6.7 8.3 0.3 8.3 0.3 -5.3 4 c-3 2.2 -6 4.4 -6.7 4.8 -0.9 0.5 -0.6 2.4 1.3 8.1 1.4 4 2.3 7.5 2.1 7.7 -0.2 0.3 -3.2 -1.6 -6.6 -4.1 -3.4 -2.5 -6.7 -4.3 -7.4 -3.9 -0.6 0.4 -3.4 2.4 -6.2 4.5 -2.8 2.1 -5.3 3.8 -5.7 3.8 -0.3 0 0.6 -3.4 2 -7.6z"/>
  <path d="M315.8 206.9 l1.6 -5.1 -2.4 -1.8 c-7.1 -5.3 -7 -4.9 -0.8 -5 l5.6 0 1.9 -5.6 1.9 -5.6 1.7 5.5 1.8 5.6 5.5 0.3 5.6 0.3 -4.5 3.2 -4.6 3.2 1.9 5 c1 2.8 1.5 5.1 1.2 5.1 -0.4 0 -2.5 -1.4 -4.6 -3 -4.1 -3.1 -4.2 -3.1 -9.2 0.7 -1.7 1.3 -3.3 2.3 -3.7 2.3 -0.3 0 0.2 -2.3 1.1 -5.1z"/>
 </g>
</svg>