<?xml version="1.0" encoding="utf-8"?>
<!DOCTYPE svg PUBLIC "-//W3C//DTD SVG 20010904//EN" "http://www.w3.org/TR/2001/REC-SVG-20010904/DTD/svg10.dtd">
<svg version="1.0" xmlns="http://www.w3.org/2000/svg" width="564px" height="564px" viewBox="0 0 564 564" preserveAspectRatio="xMidYMid meet">
 <g fill="#000000">
  <path d="M307.4 277.2 c-0.6 -0.4 -6.3 -9.4 -12.7 -20 -9 -14.8 -11.7 -20.1 -11.7 -22.7 0 -3.4 0.1 -3.5 3.8 -3.5 9.5 0 14.3 3.6 21.7 16.3 2.1 3.7 4.2 6.7 4.5 6.7 0.3 0 2.8 -3.9 5.5 -8.6 5.9 -10.3 9.7 -13.3 17.9 -14.1 l5.6 -0.6 0 3.8 c0 2.9 -2.2 7.4 -11 22.1 -6.1 10.1 -11.8 19 -12.6 19.9 -1.6 1.6 -9 2.1 -11 0.7z m-6.4 -35.5 c0 -0.2 -1.5 -1.6 -3.2 -3.3 l-3.3 -2.9 2.9 3.3 c2.8 3 3.6 3.7 3.6 2.9z"/>
 </g>
 <g fill="#ffffff">
  <path d="M283.5 400.8 c-0.2 -0.7 -1.6 -5.1 -3.1 -9.8 -3 -9.8 -9.3 -24 -10.5 -24 -0.5 0 -0.9 -0.5 -0.9 -1.1 0 -0.7 -1.6 -3.1 -3.5 -5.5 -1.9 -2.3 -3.5 -4.8 -3.5 -5.4 0 -0.6 1.5 -3.8 3.4 -6.9 1.8 -3.2 4 -7.4 4.7 -9.5 l1.3 -3.6 14.8 0 14.7 0 3.5 7.3 c1.9 3.9 4.2 8.4 5.2 9.8 1.7 2.6 1.6 2.7 -2.4 8 -6.5 8.7 -12 20.7 -17.2 37.7 -1.1 3.4 -1.8 4.2 -3.7 4.2 -1.3 0 -2.6 -0.6 -2.8 -1.2z m6.3 -42 c0.7 -0.7 1.2 -2.3 1.2 -3.6 0 -1.8 -0.4 -2.2 -1.7 -1.8 -1 0.3 -3 -0.1 -4.5 -0.9 -2.6 -1.3 -2.8 -1.2 -3.4 1 -0.9 3.5 1.2 6.5 4.4 6.5 1.6 0 3.3 -0.5 4 -1.2z"/>
  <path d="M303.6 338.4 c-1 -2.7 -0.7 -3.4 1.9 -3.4 2.7 0 3.3 1.8 1.3 3.8 -1.6 1.6 -2.5 1.5 -3.2 -0.4z"/>
  <path d="M267.1 337.6 c-1.5 -1.8 -1 -2.9 1.2 -2.4 0.9 0.2 1.2 0.9 0.8 2.1 -0.6 1.7 -0.8 1.8 -2 0.3z"/>
  <path d="M260.2 330.9 c-3.2 -1.2 -13.7 -14.1 -12.5 -15.3 0.3 -0.3 6.1 -0.6 12.7 -0.6 l12.2 0 -0.8 7.8 c-0.3 4.2 -0.7 8.1 -0.7 8.5 -0.1 0.9 -8.3 0.6 -10.9 -0.4z"/>
  <path d="M273.4 327.4 c0.3 -2.6 0.6 -6.4 0.6 -8.5 l0 -3.9 11.9 0 11.8 0 0.6 6 c0.4 3.3 1 7.2 1.3 8.5 l0.6 2.5 -13.7 0 -13.8 0 0.7 -4.6z"/>
  <path d="M301.4 330.8 c-0.4 -0.6 -0.9 -4.4 -1.2 -8.5 l-0.5 -7.3 13.7 0 c16.6 0 16.9 0.5 6.7 10.3 -6.8 6.6 -7 6.7 -12.4 6.7 -3.2 0 -5.9 -0.5 -6.3 -1.2z"/>
  <path d="M238.9 307.9 l-3.4 -4.1 -12.8 -0.5 c-8.6 -0.4 -12.7 -0.9 -12.4 -1.7 0.3 -0.8 9.3 -1.2 29.3 -1.4 l28.9 -0.2 0 6 0 6 -13.1 0 -13.1 0 -3.4 -4.1z"/>
  <path d="M270.7 311.3 c-0.4 -0.3 -0.7 -3 -0.7 -6 l0 -5.3 16.5 0 16.5 0 0 4.4 c0 7.9 0.6 7.6 -16.4 7.6 -8.4 0 -15.6 -0.3 -15.9 -0.7z"/>
  <path d="M304.8 306 l0.4 -6 26 0.1 c14.3 0 26.6 0.3 27.4 0.6 3.8 1.4 0.4 2.3 -8.8 2.3 l-10.2 0 -3.3 3.7 c-1.8 2 -3.3 4 -3.3 4.5 0 0.4 -6.4 0.8 -14.2 0.8 l-14.3 0 0.3 -6z"/>
  <path d="M215 296.5 c-1 -1.3 -0.9 -1.5 0.9 -1.5 1.7 0 2.1 -0.6 2.1 -3 0 -2 0.5 -3 1.5 -3 0.8 0 1.5 0.8 1.5 1.7 0 1.5 0.1 1.5 1.3 -0.1 0.9 -1.2 2.3 -1.7 4.2 -1.4 2.7 0.3 3 0.7 3.3 4 0.3 2.9 -0.1 3.8 -1.7 4.3 -2.9 0.9 -6.1 -0.3 -6.2 -2.3 0 -1.2 -0.3 -1.1 -0.9 0.6 -1.1 2.5 -4.2 2.9 -6 0.7z m12 -3.5 c0 -1.1 -0.4 -2 -0.9 -2 -1.1 0 -2.2 2.6 -1.4 3.4 1.2 1.2 2.3 0.5 2.3 -1.4z"/>
  <path d="M231 293.5 c0 -3.3 0.4 -4.5 1.5 -4.5 0.8 0 1.5 0.7 1.5 1.5 0 0.8 0.5 1.5 1 1.5 0.6 0 1 -0.7 1 -1.5 0 -1.9 6.6 -2.1 7.3 -0.2 0.4 1 0.6 1 0.6 0 0.1 -0.7 0.8 -1.3 1.6 -1.3 1.1 0 1.5 1.2 1.5 4.5 0 3.3 -0.4 4.5 -1.5 4.5 -0.8 0 -1.5 -0.5 -1.5 -1.1 0 -0.8 -0.4 -0.8 -1.2 -0.2 -0.7 0.5 -2.5 1 -4 1.1 -2.2 0.1 -2.8 -0.3 -2.8 -1.8 0 -1.1 -0.4 -2 -1 -2 -0.5 0 -1 0.9 -1 2 0 1.1 -0.7 2 -1.5 2 -1.1 0 -1.5 -1.2 -1.5 -4.5z"/>
  <path d="M251 293.4 l0 -4.5 3.8 0.3 c3.2 0.3 3.7 0.7 4 3.1 0.4 3.7 -1.3 5.7 -4.9 5.7 -2.8 0 -2.9 -0.2 -2.9 -4.6z m5 -0.5 c0 -1 -0.4 -1.9 -1 -1.9 -0.5 0 -1 1.2 -1 2.6 0 1.4 0.4 2.3 1 1.9 0.6 -0.3 1 -1.5 1 -2.6z"/>
  <path d="M260 296.5 c0 -0.8 0.7 -1.5 1.5 -1.5 0.8 0 1.5 0.7 1.5 1.5 0 0.8 -0.7 1.5 -1.5 1.5 -0.8 0 -1.5 -0.7 -1.5 -1.5z"/>
  <path d="M267.2 294.1 c-0.7 -2.1 -1.2 -4.1 -1.2 -4.5 0 -1.3 2.3 -0.5 3.6 1.2 1.3 1.6 1.3 1.6 1.4 0 0 -1.6 3 -2.7 3 -1.2 0 3 -2.6 8.4 -4 8.4 -1.1 0 -2.1 -1.4 -2.8 -3.9z"/>
  <path d="M273 297 c0 -0.6 0.7 -2.7 1.5 -4.6 1.8 -4.5 4.3 -4.2 6.1 0.6 l1.2 3.5 0.1 -3.7 c0.1 -4.1 2.2 -5.2 4 -2 1 1.6 1 1.6 1.1 0 0 -1.5 0.9 -1.8 5 -1.8 3.6 0 5.2 0.5 5.9 1.8 1 1.6 1 1.6 1.1 0 0 -1.4 0.8 -1.8 3.5 -1.8 3.9 0 4.8 1.6 1.3 2.3 l-2.3 0.4 2.3 0.2 c2.7 0.1 3 2.1 0.2 2.1 -1.1 0 -2 0.5 -2 1 0 0.6 1.1 1 2.5 1 2.2 0 2.5 -0.4 2.5 -3.5 0 -3.3 0.2 -3.5 3.4 -3.5 1.9 0 3.7 0.6 3.9 1.3 0.4 1 0.6 1 0.6 0 0.1 -1.7 3.1 -1.7 3.1 -0.1 0 0.9 0.3 0.9 1.2 0 0.7 -0.7 2.1 -1.2 3.2 -1.2 1.8 0 1.8 0.1 0.2 1.9 -1 1.1 -1.5 2.5 -1.1 3 1.1 1.9 2.3 1.2 3.4 -1.9 1.3 -3.9 3.8 -3.8 5.6 0.3 l1.4 3.2 1.3 -3.2 c1.7 -4.6 4.1 -4.2 6.1 0.9 1.9 4.8 1.5 5.8 -1.6 3.9 -1.5 -1 -2.2 -1 -2.5 -0.2 -0.5 1.4 -6.2 1.5 -6.2 0.1 0 -0.5 -0.7 -1 -1.5 -1 -0.8 0 -1.5 0.5 -1.5 1 0 1.7 -5.2 1.1 -6.6 -0.7 -1.3 -1.7 -1.3 -1.7 -1.4 0 0 2 -4.9 2.4 -6.8 0.5 -0.8 -0.8 -1.2 -0.8 -1.2 -0.1 0 0.6 -2.3 1.1 -5.5 1.2 -5 0.1 -5.5 -0.1 -5.6 -2.2 0 -1.5 -0.2 -1.7 -0.6 -0.7 -0.9 2.3 -2.4 2.9 -7.1 2.8 -2.8 0 -4.6 -0.6 -5.2 -1.7 -0.8 -1.4 -0.9 -1.4 -1 0.2 0 2.1 -4.9 2.4 -6.9 0.5 -1.1 -1 -1.4 -1 -1.8 0 -0.6 1.5 -3.3 1.6 -3.3 0.2z"/>
  <path d="M342 296.2 c0 -1 -0.7 -2.7 -1.5 -3.8 -2.1 -2.8 -1.9 -3.1 2.6 -3.1 3.3 0 3.9 0.3 3.3 1.6 -0.4 0.9 -0.9 2.8 -1.2 4.4 -0.5 3 -3.2 3.8 -3.2 0.9z"/>
  <path d="M210.3 289.3 c-2.5 -4.5 -5.1 -12.1 -5.9 -17.1 -0.8 -4.6 -1.2 -6.7 -1.4 -6.7 -0.1 0 -0.3 -1.3 -0.6 -3 -0.6 -4.6 -12.2 -32.5 -15 -36.2 -4.9 -6.4 -8.6 -7.6 -23.1 -7.7 -5.1 0 -9.3 -0.4 -9.3 -0.8 0 -0.5 0.6 -0.8 1.3 -0.9 0.6 0 3.2 -0.3 5.7 -0.7 5.7 -0.7 9.4 -0.7 14.5 0 12.1 1.8 15.9 6.9 24 31.8 3.7 11.6 7.6 20.2 10.1 22.8 0.8 0.7 1.9 2.3 2.5 3.4 1.8 3.3 -0.8 1.2 -4.3 -3.5 -2.4 -3.3 -2.9 -3.6 -2.4 -1.7 0.4 1.4 1.6 6.1 2.8 10.5 1.1 4.4 2.7 9.2 3.4 10.8 2.2 4.1 0.1 3.2 -2.3 -1z"/>
  <path d="M351.4 289.5 c0.4 -1.1 1.6 -5.4 2.6 -9.5 1 -4.1 2.3 -9 2.9 -10.9 l1 -3.3 -2.1 1.8 -2.1 1.9 2.1 -4 c3.2 -5.9 5.9 -12.7 10.4 -25.5 2.1 -6.3 5 -13.1 6.3 -15.1 2.5 -3.8 7.8 -7.7 11.7 -8.5 5.6 -1.1 22.4 -0.1 24 1.5 0.4 0.4 -3.4 0.7 -8.5 0.8 -11.8 0.1 -15.3 0.8 -19.7 4.1 -4.5 3.3 -4.2 2.9 -9.1 14.7 -2.3 5.5 -5 11.9 -6.1 14.2 -3.8 8.7 -5 13.2 -5.2 19.6 -0.1 1.5 -0.3 2.7 -0.6 2.7 -0.3 0 -0.6 0.9 -0.7 1.9 -0.2 2.8 -4.4 12.3 -6.1 14.1 -1.3 1.3 -1.4 1.3 -0.8 -0.5z"/>
  <path d="M186 288.9 c0 -0.5 0.5 -0.9 1.1 -0.9 0.5 0 2.9 -2 5.1 -4.5 4.6 -5 5.7 -5.2 3.4 -0.6 -2.2 4.2 -9.6 8.9 -9.6 6z"/>
  <path d="M375.5 289.1 c-3.1 -0.9 -4.9 -2.3 -6.9 -5.4 -2.8 -4.5 -0.9 -4.5 3.2 -0.1 2 2.3 4.4 4.3 5.2 4.6 2.2 0.8 0.8 1.6 -1.5 0.9z"/>
  <path d="M173 285 c0 -0.4 1.3 -1 3 -1.3 1.6 -0.4 3.9 -1.6 5 -2.7 1.1 -1.1 2 -1.7 2 -1.3 0 0.3 0.8 -0.1 1.8 -0.9 3.5 -3.1 4.6 -3.1 2.4 -0.1 -1.1 1.6 -2.8 3.6 -3.7 4.3 -1.8 1.5 -10.5 3.1 -10.5 2z"/>
  <path d="M219 258.3 l0 -27.6 4 -3.9 4.1 -3.8 59.5 0 59.5 0 -0.3 27.6 -0.3 27.5 -4.2 4 -4.2 3.9 -59.1 0 -59 0 0 -27.7z m61 8.7 c0 -10 -0.4 -16 -1 -16 -0.6 0 -1 -4.8 -1 -12.5 l0 -12.5 -22.7 0 c-34.3 0 -33.3 -1 -33.3 33.8 l0 23.2 29 0 29 0 0 -16z m48.3 -13.1 c11.4 -18.9 11.7 -19.4 9.2 -19.7 -1.5 -0.2 -4.5 0.8 -6.8 2.1 -3.4 2 -5.5 4.6 -10.7 13.6 -3.6 6.1 -6.7 11.1 -7 11.1 -0.3 0 -3 -4.1 -6 -9.2 -6.3 -10.7 -9.2 -14.4 -12.9 -16.2 -3.4 -1.8 -8.7 -2.4 -8.4 -1 0.4 2.4 21.7 37 24 39.2 2.2 2 2.8 2.1 4.7 0.9 1.1 -0.7 7.4 -10.1 13.9 -20.8z"/>
  <path d="M232.7 272.8 c-1.4 -1.2 -2.9 -3.5 -3.3 -5 l-0.6 -2.8 11.1 0 c10.5 0 11.3 -0.1 13.6 -2.5 2.3 -2.2 2.5 -3.1 2.5 -12.5 0 -9.9 0.1 -10.2 2.9 -13.1 1.6 -1.6 3.9 -2.9 5.1 -2.9 2.2 0 2.2 0.2 1.8 15.4 -0.3 13.7 -0.5 15.8 -2.4 18.2 -4.4 5.9 -6.7 6.9 -17.8 7.2 -9.6 0.4 -10.5 0.2 -12.9 -2z"/>
  <path d="M383.7 285.1 c-1.6 -0.5 -6.6 -5.2 -7.8 -7.3 -0.7 -1.3 -0.5 -1.5 1.1 -1.1 1.1 0.3 2 0.9 2 1.3 0 1.1 9.6 6 11.6 6 1 0 1.4 0.3 1.1 0.7 -0.8 0.7 -6 1 -8 0.4z"/>
  <path d="M159.3 278.3 c-2.4 -0.9 -1.3 -1.8 2.3 -2 2 -0.1 5.3 -1.3 7.3 -2.7 2 -1.4 4.1 -2.6 4.5 -2.6 0.4 0 2.1 -0.9 3.8 -2.1 4.2 -3.1 4.9 -1.3 0.8 2.2 -1.9 1.7 -4 3.3 -4.5 3.7 -0.6 0.4 -1.8 1.3 -2.8 2.1 -1.7 1.4 -9 2.2 -11.4 1.4z"/>
  <path d="M393 276.3 c-1.5 -1.2 -3.3 -2.3 -3.8 -2.3 -1.1 0 -4.2 -3.9 -4.2 -5.2 0 -0.5 1.9 0.4 4.2 1.8 5.4 3.4 11 6 14 6.3 2.5 0.2 -0.5 1.5 -3.9 1.6 -2.4 0.1 -4.4 -0.6 -6.3 -2.2z"/>
  <path d="M191.6 274.1 c-1.9 -2.1 -2 -3 -0.3 -2.7 2.4 0.6 4.6 1.8 5 3 0.7 1.9 -2.9 1.7 -4.7 -0.3z"/>
  <path d="M368.4 274.9 c-0.8 -1.3 2.1 -3.9 4.4 -3.9 1.2 0 1.2 0.3 0 2.2 -1.8 2.7 -3.4 3.3 -4.4 1.7z"/>
  <path d="M135 269.9 c-2.5 -0.7 -2.4 -0.7 0.5 -1 2.9 -0.2 4.5 -0.5 5.5 -0.9 0.3 -0.1 1.4 -0.3 2.5 -0.5 4.6 -0.8 7.9 -1.7 9.6 -2.5 1 -0.6 2.7 -1 3.9 -1 1.1 0 4.7 -1.1 8 -2.4 8.1 -3.3 6.8 -0.8 -1.8 3.4 -3.7 1.8 -6.9 3.2 -7.2 3.2 -0.3 0 -1.3 0.4 -2.4 1 -2.2 1.2 -15.1 1.7 -18.6 0.7z"/>
  <path d="M413.4 270.2 c-5.4 -0.8 -22.6 -10.2 -18.7 -10.2 1.2 0 2.5 0.5 2.8 1 0.3 0.6 1.6 1 2.9 1 1.2 0 2.6 0.3 3 0.8 0.4 0.4 1.1 0.7 1.4 0.8 0.4 0 3.3 0.8 6.6 1.8 3.2 0.9 7 1.9 8.5 2.1 6 0.7 10.2 1.8 9.6 2.4 -0.7 0.6 -12.5 0.8 -16.1 0.3z"/>
  <path d="M183 267.6 c-1.1 -1.1 -1.4 -3.6 -0.4 -3.6 1.2 0 6.4 3.4 6.4 4.2 0 1.1 -4.8 0.6 -6 -0.6z"/>
  <path d="M376.5 267.2 c1.1 -1.1 3.1 -2.3 4.4 -2.7 2.3 -0.7 2.3 -0.7 0.8 1.6 -0.9 1.3 -2.9 2.5 -4.4 2.7 -2.8 0.3 -2.8 0.3 -0.8 -1.6z"/>
  <path d="M115 259.9 c-4.3 -1.9 -5.5 -3.4 -1.7 -2 2.4 0.8 12.7 0.7 16.5 -0.3 1.2 -0.3 3 -0.8 4 -1 3.7 -0.9 13.8 -3.9 14.7 -4.4 0.6 -0.4 1.8 -0.8 2.7 -0.9 0.9 -0.2 3.2 -1.2 5 -2.3 3.7 -2.2 4.8 -2.5 4.8 -1 0 0.6 -0.6 1 -1.4 1 -0.8 0 -1.6 0.5 -1.8 1.1 -0.2 0.5 -1.1 1.1 -2 1.2 -0.9 0.2 -2.2 0.8 -2.9 1.3 -1.7 1.3 -7.9 4.4 -8.9 4.4 -0.4 0 -2.5 0.8 -4.6 1.7 -5.2 2.2 -5.8 2.3 -13.7 2.7 -4.8 0.2 -7.9 -0.3 -10.7 -1.5z"/>
  <path d="M428 260.2 c-4.9 -1.5 -20.9 -9.2 -21.7 -10.4 -0.7 -1.2 0.4 -1 6.6 1.7 3.2 1.3 6.9 2.6 8.2 2.9 1.3 0.2 3.1 0.7 3.9 1 0.8 0.3 2.6 0.8 4 1 1.4 0.3 3.6 0.8 5 1.1 3.9 1 14.2 1.3 17.3 0.4 3.7 -1 3.4 -0.3 -0.8 1.7 -4.5 2.1 -16.5 2.4 -22.5 0.6z"/>
  <path d="M173.9 257.1 c-1.1 -1.3 -1.9 -3.1 -1.8 -4 0 -1 0.2 -1.2 0.6 -0.3 0.2 0.6 0.9 1.2 1.4 1.2 0.5 0 1.7 0.7 2.6 1.5 1 0.8 2.6 2 3.6 2.7 1.5 1.2 1.4 1.3 -1.4 1.3 -2.1 0 -3.8 -0.8 -5 -2.4z"/>
  <path d="M382 258.8 c0 -0.4 0.9 -1 2 -1.3 1.1 -0.3 2 -1.1 2 -1.6 0 -0.5 0.6 -0.9 1.4 -0.9 0.8 0 2.2 -0.7 3.1 -1.6 2.6 -2.6 2.7 -1 0.3 2.6 -1.8 2.6 -3 3.3 -5.6 3.4 -1.7 0.1 -3.2 -0.2 -3.2 -0.6z"/>
  <path d="M111 250.7 c-0.3 -0.3 -2.9 -0.8 -5.8 -1.1 -5.3 -0.6 -12.2 -3 -12.2 -4.1 0 -0.4 1 -0.3 2.3 0.1 3.1 1 22.7 1.2 23.3 0.2 0.3 -0.5 0.8 -0.6 1.2 -0.4 0.7 0.4 5.5 -0.4 11.2 -1.9 1.4 -0.3 3.6 -0.8 4.9 -1.1 1.3 -0.3 3.9 -1.1 5.9 -1.9 4 -1.7 4.5 -1.8 3.8 -0.6 -0.6 0.9 -6.3 3.8 -12.6 6.4 -3 1.2 -5.1 1.7 -12.7 3.3 -5 1 -8.9 1.4 -9.3 1.1z"/>
  <path d="M169.9 250.6 c-0.2 -0.2 -2 -0.6 -3.9 -0.8 -3.1 -0.4 -3.5 -0.8 -3.7 -3.4 -0.1 -1.6 0 -2.3 0.3 -1.6 0.3 0.6 1.4 1.2 2.4 1.2 2 0 6.8 3.5 5.9 4.4 -0.3 0.3 -0.8 0.4 -1 0.2z"/>
  <path d="M392.5 249.9 c-0.3 -0.4 1.6 -1.7 4.1 -2.9 4.2 -1.9 4.8 -2 6.1 -0.6 0.7 0.9 1 1.4 0.6 1.1 -0.3 -0.3 -1.3 0.1 -2.2 0.9 -1.8 1.5 -8 2.6 -8.6 1.5z"/>
  <path d="M449 250.7 c-0.3 -0.3 -2.3 -0.7 -4.5 -1 -6.5 -1 -24.5 -7.6 -24.5 -9.1 0 -0.5 4 0.5 13.2 3.2 3.6 1 7.8 1.8 9.2 1.6 1.4 -0.1 2.8 0.1 3.1 0.5 0.2 0.5 5.4 0.7 11.5 0.5 6 -0.1 11 0 11 0.2 0 0.6 -4.6 2.3 -7.8 2.8 -1.5 0.2 -4.5 0.7 -6.7 1.1 -2.2 0.3 -4.3 0.4 -4.5 0.2z"/>
  <path d="M159.9 242.6 c-0.2 -0.2 -2 -0.6 -3.9 -0.8 -3 -0.4 -3.7 -0.9 -4.6 -3.9 -1.4 -4 -1.1 -4.7 1.1 -2.6 0.9 0.9 2.9 2.4 4.5 3.4 1.6 0.9 3.2 2.3 3.4 3 0.5 1.3 0.3 1.7 -0.5 0.9z"/>
  <path d="M404.6 240.6 c0.3 -0.9 1.6 -1.8 2.7 -2.2 1.2 -0.3 3 -1.6 3.9 -2.8 1.7 -2.1 1.8 -2.1 1.8 -0.1 0 3.3 -2.5 6 -5.9 6.3 -2.3 0.2 -2.9 -0.1 -2.5 -1.2z"/>
  <path d="M93.7 239.3 c-0.1 0 -1.5 -0.4 -3.2 -0.6 -3.3 -0.6 -4.6 -1 -12.4 -3.1 -6.8 -1.9 -9.4 -4.1 -3.6 -3 2.2 0.4 4.9 1 6 1.4 1.9 0.6 14.7 1.4 24 1.4 4.8 0 16.1 -1.1 19.3 -1.8 1.2 -0.4 3.1 -0.8 4.2 -1 1.1 -0.3 2.5 -0.8 3 -1.1 0.6 -0.3 1 -0.2 1 0.2 0 1.1 -7 4.3 -10.7 4.9 -1.6 0.2 -3.5 0.7 -4.3 1 -3 1.1 -22.5 2.6 -23.3 1.7z"/>
  <path d="M455.6 239.3 c-0.1 -0.1 -1.8 -0.4 -3.6 -0.7 -5.9 -0.8 -11 -2.3 -17.4 -5.1 -4.2 -1.8 -4.4 -3.2 -0.2 -1.5 6.3 2.3 14.7 3.3 28.6 3.2 14.3 -0.2 24.6 -1.2 27.2 -2.8 0.4 -0.3 0.8 -0.2 0.8 0.1 0 0.5 -7 3.8 -7.7 3.7 -0.2 0 -1.7 0.4 -3.5 0.9 -1.8 0.6 -4.6 1.2 -6.3 1.5 -3.1 0.5 -17.5 1.1 -17.9 0.7z"/>
  <path d="M203.2 233.8 c-1.4 -1.8 -4.3 -7.7 -4 -8.1 0.2 -0.2 -0.3 -1.1 -1.1 -2.1 -0.8 -0.9 -1.1 -1.9 -0.8 -2.2 0.6 -0.6 5 6.6 6.6 10.9 1.1 2.9 0.9 3.4 -0.7 1.5z"/>
  <path d="M143.3 231.5 c-2.8 -1.2 -4.2 -3.3 -4.9 -7.3 -0.1 -0.7 0.8 -0.3 2.1 1 2.8 2.8 4.5 4.1 6.9 5.5 3 1.6 -0.4 2.3 -4.1 0.8z"/>
  <path d="M415.5 232.1 c-0.3 -0.6 0.4 -1.5 1.7 -2.2 1.2 -0.6 3.3 -2.2 4.7 -3.5 2.4 -2.2 4.1 -3 4.1 -1.9 0 2.1 -2.9 5.7 -5.5 7 -3.9 1.8 -4.2 1.8 -5 0.6z"/>
  <path d="M83 228.7 c-0.3 -0.3 -3 -0.8 -6 -1.1 -7.9 -0.7 -11.7 -1.5 -18.5 -3.7 -11 -3.6 -26.5 -12.7 -29.4 -17.2 -1.1 -1.7 -1 -1.7 1.6 -0.2 4.2 2.3 6.6 3.9 8.1 5.2 0.7 0.7 2.5 1.6 4 2 1.5 0.3 3.7 1.3 5 2.1 1.2 0.8 2.2 1.1 2.2 0.8 0 -0.4 1 -0.1 2.2 0.5 1.3 0.7 3.8 1.6 5.8 2.1 1.9 0.5 4.4 1.1 5.5 1.4 5.4 1.4 15 3.3 20.5 4 1.9 0.3 8.8 0.6 15.3 0.6 11.2 0.2 14.3 0.9 9.5 2.2 -3.2 0.8 -25.2 2 -25.8 1.3z"/>
  <path d="M463.9 228.6 c-0.2 -0.2 -2.6 -0.7 -5.4 -1 -10.5 -1.2 -14 -1.8 -15 -2.7 -0.6 -0.6 1.7 -0.7 6 -0.3 12.5 1.2 28.4 0.7 37.5 -1.1 1.4 -0.3 3.6 -0.7 5 -1 1.4 -0.3 3.5 -0.7 4.8 -1 1.2 -0.3 3.1 -0.7 4.2 -0.9 1.1 -0.3 2.4 -0.7 2.8 -1 0.5 -0.3 2.3 -0.8 4.1 -1.1 1.8 -0.3 4 -1 4.9 -1.5 0.9 -0.5 3.5 -1.7 5.7 -2.6 4.4 -2 16.4 -9.2 18 -10.9 0.6 -0.6 1.9 -1.8 2.9 -2.5 3.9 -3 -0.2 2.7 -4.4 6.2 -2.3 1.8 -5.3 4.3 -6.8 5.6 -3.6 3 -19.6 10.8 -25 12.2 -11 2.8 -37.6 5.3 -39.3 3.6z"/>
  <path d="M112.3 225.7 c0.2 -0.7 1.2 -1.2 2.3 -1.3 1 -0.1 2.9 -0.4 4.1 -0.8 1.2 -0.4 2.4 -0.2 2.8 0.3 0.6 1 -1 1.6 -6.8 2.5 -1.9 0.3 -2.7 0.1 -2.4 -0.7z"/>
  <path d="M365.9 221.5 c-0.3 -0.2 -38.7 -0.5 -85.3 -0.5 l-84.8 -0.1 -2.5 -3 c-1.4 -1.6 -3.4 -3.4 -4.6 -4.1 -2 -1.1 -11.6 -1.3 -17.2 -0.3 -9.3 1.5 -19.7 2 -43 2 -23.7 0 -32.4 -0.5 -42.5 -2.1 -6 -1 -6.4 -1 -12 -2.2 -3 -0.6 -6.6 -1.4 -8 -1.6 -5.6 -1.1 -7.9 -1.7 -17.2 -4.6 -5.4 -1.7 -9.8 -3.5 -9.8 -4 0 -0.4 0.8 -0.7 1.8 -0.5 0.9 0.2 1.7 0.4 1.7 0.5 0 0.1 0.7 0.3 1.5 0.5 0.8 0.2 2.5 0.6 3.7 0.9 1.3 0.3 3.2 0.8 4.3 1 1.1 0.3 2.4 0.7 2.9 1 0.5 0.3 2.6 0.8 4.7 1.1 2.2 0.3 6.6 1.1 9.9 1.6 10.7 1.9 16.5 2.5 33 3.5 15.3 1 58.8 0.9 72.7 -0.1 10.1 -0.7 10.8 -0.7 14 1.5 1.8 1.3 4 3.2 4.9 4.3 1.2 1.4 2.9 2 6.5 2.1 l4.9 0.1 0.5 -4.9 c0.5 -4.5 0.7 -4.9 4.4 -6.1 5.8 -2 8.8 -4.5 11.4 -9.6 2.1 -3.9 2.3 -5.4 1.9 -13.7 -0.3 -6.9 -0.1 -9.7 0.9 -10.6 2 -2.1 19.7 -7.4 31.5 -9.5 15.3 -2.8 43.3 -2.9 58.6 -0.1 11.3 2 25.5 6 30.5 8.6 l2.6 1.4 -0.5 9.7 c-0.4 9 -0.3 10.2 1.9 14.2 2.7 5.1 5.8 7.6 11.3 9.6 3.3 1.1 4.1 1.9 4.6 4.6 0.4 1.8 0.5 3.8 0.2 4.4 -0.9 2.5 2.6 2.4 4.2 -0.2 0.9 -1.3 3.7 -3.4 6.2 -4.5 4.1 -1.8 5.7 -1.9 13.7 -1.2 5 0.4 21 0.8 35.6 0.8 32.1 0 51.9 -1.1 68.5 -4 1.1 -0.1 3.4 -0.5 5 -0.8 6.2 -0.9 9.9 -1.7 10.7 -2.2 0.4 -0.3 1.7 -0.7 2.8 -1 1.1 -0.2 2.9 -0.6 4 -0.9 5 -1.2 6 -1.3 5.5 -0.5 -0.3 0.6 -3.2 1.7 -6.3 2.6 -3.1 0.8 -6.8 1.9 -8.2 2.4 -1.4 0.5 -3.7 1.2 -5.2 1.4 -1.5 0.3 -3.1 0.7 -3.6 1 -0.5 0.3 -2.2 0.8 -3.8 1 -1.6 0.3 -4 0.8 -5.4 1.1 -3.5 0.7 -9.8 1.6 -14 2 -1.9 0.2 -3.5 0.4 -3.5 0.5 0 1.4 -57.3 1.8 -69.5 0.6 -4.1 -0.4 -8.5 -0.8 -9.7 -0.8 -1.3 0 -2.3 -0.3 -2.3 -0.7 0 -1.2 -12.5 -0.5 -15 0.9 -3.6 1.8 -6 4.1 -5.4 5.1 0.3 0.5 -0.4 0.9 -1.6 0.9 -1.2 0 -1.8 0.5 -1.5 1 0.6 1 0.2 1.4 -0.6 0.5z m-122.2 -12.1 c3.9 -3 3.9 -3 8.5 0.2 2.1 1.5 4.1 2.4 4.4 2.1 0.4 -0.3 -0.1 -2.7 -1 -5.3 -0.9 -2.6 -1.2 -5 -0.7 -5.3 4.8 -3.2 8.1 -5.7 8.1 -6.3 0 -0.5 -2.7 -0.8 -5.9 -0.8 l-5.9 0 -1.3 -5 c-0.7 -2.7 -1.6 -5 -2.1 -5 -0.4 0 -1.4 2.1 -2.1 4.8 l-1.4 4.7 -5.7 0.3 c-3.1 0.2 -5.6 0.7 -5.6 1.2 0 0.6 1.8 2.2 4 3.6 4.5 3 4.6 3.4 2.5 9.4 -0.8 2.3 -1.5 4.4 -1.5 4.7 0 0.6 1.9 -0.5 5.7 -3.3z m43.6 -4.5 c1.2 0.5 4.1 2.5 6.4 4.2 2.4 1.8 4.6 3 4.9 2.6 0.3 -0.3 -0.3 -3.4 -1.5 -6.8 -1.2 -3.5 -2.1 -6.8 -2.1 -7.4 0 -0.7 2.9 -3.2 6.5 -5.6 3.5 -2.4 6.5 -4.7 6.5 -5.1 0 -0.4 -3.9 -0.9 -8.7 -1 l-8.7 -0.3 -1.9 -6.5 c-1 -3.6 -2.2 -6.9 -2.7 -7.3 -0.4 -0.5 -1.9 2.4 -3.2 6.5 l-2.5 7.3 -8.1 0.3 c-4.5 0.2 -8.2 0.7 -8.2 1.2 0 0.4 2.9 2.9 6.4 5.4 l6.5 4.6 -2.5 7.2 c-1.3 3.9 -2.4 7.6 -2.4 8.1 0 0.5 3 -1.2 6.6 -3.8 5.6 -4.1 6.9 -4.6 8.7 -3.6z m32.3 4.4 c3.9 -2.9 4.1 -2.9 8.8 0.7 2.2 1.7 4.1 2.8 4.4 2.6 0.2 -0.3 -0.4 -2.8 -1.3 -5.6 -0.9 -2.8 -1.5 -5.3 -1.4 -5.4 0.2 -0.2 2.3 -1.7 4.6 -3.3 2.3 -1.7 3.9 -3.3 3.6 -3.7 -0.3 -0.3 -3 -0.6 -5.9 -0.6 l-5.2 0 -1.7 -5 c-0.9 -2.8 -2 -4.8 -2.5 -4.5 -0.4 0.2 -1.3 2.5 -1.9 5 l-1.1 4.5 -6 0 c-3.3 0 -6 0.3 -6 0.8 0 0.4 2.1 2.1 4.5 3.7 2.5 1.7 4.5 3.3 4.5 3.6 0 0.4 -0.7 2.6 -1.5 4.9 -2.4 6.9 -2.2 7.1 4.1 2.3z"/>
 </g>
</svg>